<svg xmlns="http://www.w3.org/2000/svg" viewBox="0 0 560 120" width="560" height="120" role="img">
  <title>Arcvara — AI-Native Enterprise Architecture Platform</title>
  <desc>Arcvara logo, light background variant</desc>
  <rect width="560" height="120" rx="0" fill="#F4F8FB"/>
  <g transform="translate(60,60)">
    <line x1="-38" y1="6"   x2="-12" y2="-30" stroke="#1A7FAD" stroke-width="2"   opacity="0.4"/>
    <line x1="-38" y1="6"   x2="4"   y2="26"  stroke="#1A7FAD" stroke-width="2"   opacity="0.4"/>
    <line x1="-12" y1="-30" x2="30"  y2="-8"  stroke="#0D1F3C" stroke-width="2"   opacity="0.6"/>
    <line x1="4"   y1="26"  x2="30"  y2="-8"  stroke="#0D1F3C" stroke-width="2"   opacity="0.6"/>
    <line x1="30"  y1="-8"  x2="46"  y2="22"  stroke="#1A7FAD" stroke-width="1.5" opacity="0.25"/>
    <line x1="-12" y1="-30" x2="8"   y2="-46" stroke="#1A7FAD" stroke-width="1.5" opacity="0.15"/>
    <circle cx="-38" cy="6"   r="5"   fill="#0D1F3C" opacity="0.8"/>
    <circle cx="-12" cy="-30" r="4.5" fill="#1A7FAD"/>
    <circle cx="4"   cy="26"  r="4.5" fill="#1A7FAD"/>
    <circle cx="30"  cy="-8"  r="12"  fill="#00C2CB"/>
    <circle cx="30"  cy="-8"  r="4.5" fill="#0D1F3C"/>
    <circle cx="46"  cy="22"  r="3"   fill="#1A7FAD" opacity="0.35"/>
    <circle cx="8"   cy="-46" r="2.5" fill="#1A7FAD" opacity="0.2"/>
  </g>
  <text x="120" y="66"
    font-family="'Helvetica Neue', Helvetica, Arial, sans-serif"
    font-size="42" font-weight="500" letter-spacing="5">
    <tspan fill="#00C2CB">ARC</tspan><tspan fill="#0D1F3C">VARA</tspan>
  </text>
  <line x1="120" y1="76" x2="548" y2="76" stroke="#1A7FAD" stroke-width="0.75" opacity="0.35"/>
  <text x="120" y="91"
    font-family="'Helvetica Neue', Helvetica, Arial, sans-serif"
    font-size="8.5" font-weight="400" letter-spacing="3.5" fill="#1A7FAD">AI-NATIVE ENTERPRISE ARCHITECTURE PLATFORM</text>
</svg>
